HIERARCHY
ROOT Hips
{
	OFFSET 0.000000 0.000000 0.000000
	CHANNELS 6 Xposition Yposition Zposition Zrotation Yrotation Xrotation 
	JOINT LHipJoint
	{
		OFFSET 0.000000 0.000000 0.000000
		CHANNELS 3 Zrotation Yrotation Xrotation
		JOINT LeftUpLeg
		{
			OFFSET 1.363060 -1.794630 0.839290
			CHANNELS 3 Zrotation Yrotation Xrotation
			JOINT LeftLeg
			{
				OFFSET 2.448110 -6.726130 0.000000
				CHANNELS 3 Zrotation Yrotation Xrotation
				JOINT LeftFoot
				{
					OFFSET 2.562200 -7.039590 0.000000
					CHANNELS 3 Zrotation Yrotation Xrotation
					JOINT LeftToeBase
					{
						OFFSET 0.157640 -0.433110 2.322550
						CHANNELS 3 Zrotation Yrotation Xrotation
						End Site
						{
							OFFSET 0.000000 0.000000 0.000000
						}
					}
				}
			}
		}
	}
	JOINT RHipJoint
	{
		OFFSET 0.000000 0.000000 0.000000
		CHANNELS 3 Zrotation Yrotation Xrotation
		JOINT RightUpLeg
		{
			OFFSET -1.305520 -1.794630 0.839290
			CHANNELS 3 Zrotation Yrotation Xrotation
			JOINT RightLeg
			{
				OFFSET -2.542530 -6.985550 0.000000
				CHANNELS 3 Zrotation Yrotation Xrotation
				JOINT RightFoot
				{
					OFFSET -2.568260 -7.056230 0.000000
					CHANNELS 3 Zrotation Yrotation Xrotation
					JOINT RightToeBase
					{
						OFFSET -0.164730 -0.452590 2.363150
						CHANNELS 3 Zrotation Yrotation Xrotation
						End Site
						{
							OFFSET 0.000000 0.000000 0.000000
						}
					}
				}
			}
		}
	}
	JOINT LowerBack
	{
		OFFSET 0.000000 0.000000 0.000000
		CHANNELS 3 Zrotation Yrotation Xrotation
		JOINT Spine
		{
			OFFSET 0.028270 2.035590 -0.193380
			CHANNELS 3 Zrotation Yrotation Xrotation
			JOINT Spine1
			{
				OFFSET 0.056720 2.048850 -0.042750
				CHANNELS 3 Zrotation Yrotation Xrotation
				JOINT Neck
				{
					OFFSET 0.000000 0.000000 0.000000
					CHANNELS 3 Zrotation Yrotation Xrotation
					JOINT Neck1
					{
						OFFSET -0.054170 1.746240 0.172020
						CHANNELS 3 Zrotation Yrotation Xrotation
						JOINT Head
						{
							OFFSET 0.104070 1.761360 -0.123970
							CHANNELS 3 Zrotation Yrotation Xrotation
							End Site
							{
								OFFSET 0.000000 0.000000 0.000000
							}
						}
					}
				}
				JOINT LeftShoulder
				{
					OFFSET 0.000000 0.000000 0.000000
					CHANNELS 3 Zrotation Yrotation Xrotation
					JOINT LeftArm
					{
						OFFSET 3.362410 1.200890 -0.311210
						CHANNELS 3 Zrotation Yrotation Xrotation
						JOINT LeftForeArm
						{
							OFFSET 4.983000 -0.000000 -0.000000
							CHANNELS 3 Zrotation Yrotation Xrotation
							JOINT LeftHand
							{
								OFFSET 3.483560 -0.000000 -0.000000
								CHANNELS 3 Zrotation Yrotation Xrotation
								JOINT LeftFingerBase
								{
									OFFSET 0.000000 0.000000 0.000000
									CHANNELS 3 Zrotation Yrotation Xrotation
									JOINT LeftHandIndex1
									{
										OFFSET 0.715260 -0.000000 -0.000000
										CHANNELS 3 Zrotation Yrotation Xrotation
										End Site
										{
											OFFSET 0.000000 0.000000 0.000000
										}
									}
								}
								JOINT LThumb
								{
									OFFSET 0.000000 0.000000 0.000000
									CHANNELS 3 Zrotation Yrotation Xrotation
									End Site
									{
										OFFSET 0.000000 0.000000 0.000000
									}
								}
							}
						}
					}
				}
				JOINT RightShoulder
				{
					OFFSET 0.000000 0.000000 0.000000
					CHANNELS 3 Zrotation Yrotation Xrotation
					JOINT RightArm
					{
						OFFSET -3.136600 1.374050 -0.404650
						CHANNELS 3 Zrotation Yrotation Xrotation
						JOINT RightForeArm
						{
							OFFSET -5.241900 -0.000000 -0.000000
							CHANNELS 3 Zrotation Yrotation Xrotation
							JOINT RightHand
							{
								OFFSET -3.444170 -0.000000 -0.000000
								CHANNELS 3 Zrotation Yrotation Xrotation
								JOINT RightFingerBase
								{
									OFFSET 0.000000 0.000000 0.000000
									CHANNELS 3 Zrotation Yrotation Xrotation
									JOINT RightHandIndex1
									{
										OFFSET -0.622530 -0.000000 -0.000000
										CHANNELS 3 Zrotation Yrotation Xrotation
										End Site
										{
											OFFSET 0.000000 0.000000 0.000000
										}
									}
								}
								JOINT RThumb
								{
									OFFSET 0.000000 0.000000 0.000000
									CHANNELS 3 Zrotation Yrotation Xrotation
									End Site
									{
										OFFSET 0.000000 0.000000 0.000000
									}
								}
							}
						}
					}
				}
			}
		}
	}
}
MOTION
Frames: 4
Frame Time: 0.008333
-20.223148 16.482321 -0.203212 0.811075 84.098470 15.319905 -9.546075 -0.078213 4.806852 -10.203400 -3.402784 -50.532730 -1.772257 0.814440 28.774309 1.485605 6.950199 -4.092055 0.914600 -0.000000 -17.320300 9.883582 -5.528854 1.151739 4.758952 -4.693106 6.334781 1.133431 -2.069159 22.820809 0.591545 11.214775 17.115039 4.336800 -0.000000 -81.561201 -11.416560 2.726909 -7.847128 -2.990912 3.450520 -4.770169 -4.111101 3.212167 -0.250058 4.082322 -3.788582 -8.139631 -1.343478 -0.101249 -0.112188 0.000000 0.000000 0.000000 -1.062888 19.336339 2.350970 -48.434104 35.199372 -7.134199 -5.411308 -4.830392 -0.006698 3.894927 3.152853 0.115103 -0.200863 -0.072852 -0.000000 0.000000 0.000000 0.000000 0.000000 0.000000 0.000000 1.106767 2.859760 -0.052008 34.256020 63.640882 21.099173 0.290545 74.478668 0.004756 2.826486 7.274001 0.204296 -0.167090 -0.534596 0.000000 0.000000 0.000000 0.000000 0.000000 0.000000 0.000000 
-20.050944 16.461795 -0.212762 3.570939 84.276682 17.671677 -9.538618 -0.115284 4.565941 -10.826154 -3.127036 -50.439623 -1.679057 0.979820 30.863418 1.448519 6.833370 -4.119622 0.867200 -0.000000 -16.941601 10.142791 -5.599664 1.042222 3.909082 -5.436442 5.257046 0.887752 -2.299852 26.005539 0.449059 11.561043 18.508883 4.805600 0.000000 -80.621900 -11.736337 2.585074 -7.533429 -3.069334 3.335293 -4.722323 -4.217807 3.109964 -0.300298 4.312987 -3.481886 -8.101917 -1.436767 -0.108431 -0.112637 0.000000 0.000000 0.000000 -1.547232 18.898116 2.420544 -48.596019 33.971887 -6.972085 -5.412236 -4.528815 -0.006613 3.984276 3.190751 0.118596 -0.194215 -0.069252 -0.000000 0.000000 0.000000 0.000000 0.000000 0.000000 0.000000 1.592463 3.301918 0.125957 37.163490 62.663205 22.742960 0.358522 74.070243 0.006617 2.834290 7.206009 0.202135 -0.154263 -0.528436 0.000000 0.000000 0.000000 0.000000 0.000000 0.000000 0.000000 
-19.885695 16.435621 -0.223797 6.520784 84.445368 20.153215 -9.508482 -0.159415 4.290773 -11.475869 -2.817545 -50.243509 -1.591751 1.128174 32.948464 1.405526 6.649925 -4.329315 0.785700 -0.000001 -16.561000 10.430859 -5.636019 0.882838 3.006377 -6.284464 4.113957 0.642044 -2.526792 29.449770 0.276248 11.480003 19.667897 5.067400 0.000000 -79.184000 -12.015993 2.446411 -7.114049 -3.137188 3.218732 -4.658172 -4.325144 3.008400 -0.377755 4.510003 -3.168675 -8.063282 -1.537817 -0.116116 -0.114544 0.000000 0.000000 0.000000 -2.068941 18.424801 2.513057 -48.799710 32.661940 -6.698779 -5.412450 -4.256970 -0.006555 4.039174 3.224720 0.121090 -0.187018 -0.065177 -0.000000 0.000000 0.000000 0.000000 0.000000 0.000000 0.000000 2.064942 3.777838 0.276131 40.035649 61.575135 24.266000 0.425727 73.565215 0.008189 2.813627 7.148051 0.198270 -0.140923 -0.521738 0.000000 0.000000 0.000000 0.000000 0.000000 0.000000 0.000000 
-19.727450 16.403650 -0.236574 9.495118 84.580276 22.604841 -9.459154 -0.200747 3.985156 -12.143105 -2.451297 -49.949851 -1.514276 1.261097 35.008030 1.359881 6.408525 -4.741790 0.672199 -0.000000 -16.186499 10.735449 -5.631835 0.679988 2.078396 -7.184986 2.927748 0.397233 -2.751342 33.112562 0.075881 10.840248 20.545033 5.031200 0.000000 -77.367500 -12.243593 2.318222 -6.601739 -3.192728 3.106480 -4.582091 -4.435211 2.912311 -0.487732 4.675641 -2.839426 -8.016984 -1.647525 -0.124493 -0.115780 0.000000 0.000000 0.000000 -2.636548 17.914236 2.624682 -49.028791 31.293211 -6.287171 -5.411103 -4.028241 -0.006483 4.071281 3.250517 0.122588 -0.179310 -0.060768 -0.000000 0.000000 0.000000 0.000000 0.000000 0.000000 0.000000 2.527749 4.295857 0.396740 42.858539 60.368156 25.651630 0.492111 72.965190 0.009462 2.765102 7.101671 0.192897 -0.127364 -0.514758 0.000000 0.000000 0.000000 0.000000 0.000000 0.000000 0.000000 
